<svg width="308" height="40" viewBox="0 0 308 40" fill="none" xmlns="http://www.w3.org/2000/svg">
<path d="M0.52 30V1.8H12.04C15 1.8 17.2933 2.50667 18.92 3.92C20.5467 5.30667 21.36 7.25333 21.36 9.76C21.36 11.4133 20.9867 12.8267 20.24 14C19.52 15.1467 18.4933 16.0267 17.16 16.64C15.8533 17.2533 14.32 17.56 12.56 17.56L13.28 17.04H14.08C15.1733 17.04 16.1467 17.3067 17 17.84C17.88 18.3733 18.5733 19.2667 19.08 20.52L23.08 30H19.44L15.6 20.68C15.1467 19.48 14.4667 18.7067 13.56 18.36C12.6533 17.9867 11.52 17.8 10.16 17.8H3.84V30H0.52ZM3.84 15.2H11.56C13.6933 15.2 15.3067 14.7467 16.4 13.84C17.52 12.9067 18.08 11.5733 18.08 9.84C18.08 8.10667 17.52 6.78667 16.4 5.88C15.3067 4.97333 13.6933 4.52 11.56 4.52H3.84V15.2ZM36.3456 30.36C33.199 30.36 30.719 29.4533 28.9056 27.64C27.0923 25.8 26.1856 23.2533 26.1856 20C26.1856 17.8933 26.5856 16.0667 27.3856 14.52C28.1856 12.9467 29.3056 11.7333 30.7456 10.88C32.1856 10 33.839 9.56 35.7056 9.56C37.5456 9.56 39.0923 9.94667 40.3456 10.72C41.599 11.4933 42.559 12.6 43.2256 14.04C43.8923 15.4533 44.2256 17.1333 44.2256 19.08V20.28H28.6656V18.24H42.1056L41.4256 18.76C41.4256 16.6267 40.9456 14.96 39.9856 13.76C39.0256 12.56 37.599 11.96 35.7056 11.96C33.7056 11.96 32.1456 12.6667 31.0256 14.08C29.9056 15.4667 29.3456 17.3467 29.3456 19.72V20.08C29.3456 22.5867 29.959 24.4933 31.1856 25.8C32.439 27.08 34.1856 27.72 36.4256 27.72C37.6256 27.72 38.7456 27.5467 39.7856 27.2C40.8523 26.8267 41.8656 26.2267 42.8256 25.4L43.9456 27.68C43.0656 28.5333 41.9456 29.2 40.5856 29.68C39.2523 30.1333 37.839 30.36 36.3456 30.36ZM58.0234 38.92C56.2901 38.92 54.6901 38.7067 53.2234 38.28C51.7568 37.8533 50.4368 37.2 49.2634 36.32L50.2234 33.88C51.0501 34.4667 51.8634 34.9333 52.6634 35.28C53.4634 35.6267 54.2901 35.88 55.1434 36.04C55.9968 36.2267 56.9034 36.32 57.8634 36.32C59.8368 36.32 61.3301 35.8 62.3434 34.76C63.3568 33.72 63.8634 32.24 63.8634 30.32V24.44H64.2634C63.8368 26.0133 62.9568 27.2667 61.6234 28.2C60.2901 29.1067 58.7301 29.56 56.9434 29.56C55.1034 29.56 53.5034 29.16 52.1434 28.36C50.8101 27.5333 49.7701 26.3733 49.0234 24.88C48.3034 23.36 47.9434 21.5733 47.9434 19.52C47.9434 17.4933 48.3034 15.7333 49.0234 14.24C49.7701 12.7467 50.8101 11.6 52.1434 10.8C53.5034 9.97333 55.1034 9.56 56.9434 9.56C58.7568 9.56 60.3168 10.0133 61.6234 10.92C62.9568 11.8267 63.8368 13.08 64.2634 14.68L63.8634 14.28L64.2234 9.92H67.3834C67.2768 10.6933 67.1968 11.48 67.1434 12.28C67.0901 13.0533 67.0634 13.8133 67.0634 14.56V29.88C67.0634 32.8667 66.2901 35.12 64.7434 36.64C63.2234 38.16 60.9834 38.92 58.0234 38.92ZM57.5434 26.92C59.4901 26.92 61.0234 26.28 62.1434 25C63.2634 23.6933 63.8234 21.8667 63.8234 19.52C63.8234 17.1733 63.2634 15.36 62.1434 14.08C61.0234 12.8 59.4901 12.16 57.5434 12.16C55.6234 12.16 54.0901 12.8 52.9434 14.08C51.7968 15.36 51.2234 17.1733 51.2234 19.52C51.2234 21.8667 51.7968 23.6933 52.9434 25C54.0901 26.28 55.6234 26.92 57.5434 26.92ZM82.205 30.36C79.0583 30.36 76.5783 29.4533 74.765 27.64C72.9517 25.8 72.045 23.2533 72.045 20C72.045 17.8933 72.445 16.0667 73.245 14.52C74.045 12.9467 75.165 11.7333 76.605 10.88C78.045 10 79.6983 9.56 81.565 9.56C83.405 9.56 84.9517 9.94667 86.205 10.72C87.4583 11.4933 88.4183 12.6 89.085 14.04C89.7517 15.4533 90.085 17.1333 90.085 19.08V20.28H74.525V18.24H87.965L87.285 18.76C87.285 16.6267 86.805 14.96 85.845 13.76C84.885 12.56 83.4583 11.96 81.565 11.96C79.565 11.96 78.005 12.6667 76.885 14.08C75.765 15.4667 75.205 17.3467 75.205 19.72V20.08C75.205 22.5867 75.8183 24.4933 77.045 25.8C78.2983 27.08 80.045 27.72 82.285 27.72C83.485 27.72 84.605 27.5467 85.645 27.2C86.7117 26.8267 87.725 26.2267 88.685 25.4L89.805 27.68C88.925 28.5333 87.805 29.2 86.445 29.68C85.1117 30.1333 83.6983 30.36 82.205 30.36ZM95.0428 30V14.56C95.0428 13.8133 95.0028 13.0533 94.9228 12.28C94.8695 11.48 94.8028 10.6933 94.7228 9.92H97.8428L98.2428 14.32H97.7628C98.3495 12.7733 99.2828 11.6 100.563 10.8C101.869 9.97333 103.376 9.56 105.083 9.56C107.456 9.56 109.243 10.2 110.443 11.48C111.669 12.7333 112.283 14.72 112.283 17.44V30H109.043V17.64C109.043 15.7467 108.656 14.3733 107.883 13.52C107.136 12.64 105.963 12.2 104.363 12.2C102.496 12.2 101.016 12.7733 99.9228 13.92C98.8295 15.0667 98.2828 16.6 98.2828 18.52V30H95.0428ZM126.92 30.36C124.947 30.36 123.227 29.9333 121.76 29.08C120.32 28.2267 119.2 27.0133 118.4 25.44C117.627 23.8667 117.24 22 117.24 19.84C117.24 17.6533 117.64 15.8 118.44 14.28C119.24 12.7333 120.36 11.56 121.8 10.76C123.267 9.96 124.974 9.56 126.92 9.56C128.2 9.56 129.44 9.78667 130.64 10.24C131.867 10.6933 132.88 11.3333 133.68 12.16L132.52 14.48C131.72 13.7067 130.84 13.1333 129.88 12.76C128.947 12.3867 128.027 12.2 127.12 12.2C125.04 12.2 123.427 12.8533 122.28 14.16C121.134 15.4667 120.56 17.3733 120.56 19.88C120.56 22.36 121.134 24.28 122.28 25.64C123.427 27 125.04 27.68 127.12 27.68C128 27.68 128.907 27.5067 129.84 27.16C130.8 26.8133 131.694 26.24 132.52 25.44L133.68 27.72C132.854 28.5733 131.827 29.2267 130.6 29.68C129.374 30.1333 128.147 30.36 126.92 30.36ZM137.641 39.08L136.881 36.4C138.135 36.1067 139.175 35.76 140.001 35.36C140.855 34.9867 141.561 34.48 142.121 33.84C142.681 33.2 143.161 32.4 143.561 31.44L144.601 29.08L144.521 30.44L135.761 9.92H139.281L146.521 27.56H145.481L152.641 9.92H156.041L146.761 31.68C146.228 32.96 145.641 34.0267 145.001 34.88C144.361 35.76 143.668 36.4667 142.921 37C142.201 37.56 141.401 38 140.521 38.32C139.641 38.64 138.681 38.8933 137.641 39.08Z" fill="#0052FF"/>
</svg>
